<svg width="38" height="37" viewBox="0 0 38 37" fill="none" xmlns="http://www.w3.org/2000/svg">
<path d="M37.2052 9.53639C36.9905 8.74902 36.5672 8.03039 35.9775 7.45246C35.3879 6.87453 34.6526 6.45759 33.8453 6.24339C30.883 5.46484 19 5.46484 19 5.46484C19 5.46484 7.11708 5.46484 4.15308 6.24339C3.34623 6.45797 2.61138 6.87506 2.02204 7.45295C1.43269 8.03084 1.00952 8.74928 0.794833 9.53639C0 12.4409 0 18.4996 0 18.4996C0 18.4996 0 24.5584 0.794833 27.4629C1.00951 28.2503 1.43287 28.9689 2.02254 29.5468C2.61219 30.1247 3.34744 30.5416 4.15467 30.7559C7.11708 31.5344 19 31.5344 19 31.5344C19 31.5344 30.883 31.5344 33.847 30.7559C34.6542 30.5419 35.3895 30.1249 35.9792 29.547C36.5689 28.969 36.9922 28.2503 37.2068 27.4629C38 24.5584 38 18.4996 38 18.4996C38 18.4996 38 12.4409 37.2052 9.53639ZM15.113 24.0003V12.999L25.0452 18.4996L15.113 24.0003Z" fill="white"/>
</svg>
