<svg xmlns="http://www.w3.org/2000/svg" width="53" height="53" fill="none"><path fill="gray" fill-opacity=".3" d="M38.227 48.227a2 2 0 1 1 0 4 2 2 0 0 1 0-4ZM50.227 48.227a2 2 0 1 1 0 4 2 2 0 0 1 0-4ZM14.227 36.227a2 2 0 1 1 0 4 2 2 0 0 1 0-4ZM26.227 36.227a2 2 0 1 1 0 4 2 2 0 0 1 0-4ZM38.227 36.227a2 2 0 1 1 0 4 2 2 0 0 1 0-4ZM50.227 36.227a2 2 0 1 1 0 4 2 2 0 0 1 0-4ZM14.227 24.227a2 2 0 1 1 0 4 2 2 0 0 1 0-4ZM26.227 24.227a2 2 0 1 1 0 4 2 2 0 0 1 0-4ZM38.227 24.227a2 2 0 1 1 0 4 2 2 0 0 1 0-4ZM50.227 24.227a2 2 0 1 1 0 4 2 2 0 0 1 0-4ZM2.227 12.227a2 2 0 1 1 0 4 2 2 0 0 1 0-4ZM14.227 12.227a2 2 0 1 1 0 4 2 2 0 0 1 0-4ZM26.227 12.227a2 2 0 1 1 0 4 2 2 0 0 1 0-4ZM38.227 12.227a2 2 0 1 1 0 4 2 2 0 0 1 0-4ZM50.227 12.227a2 2 0 1 1 0 4 2 2 0 0 1 0-4ZM2.227.227a2 2 0 1 1 0 4 2 2 0 0 1 0-4ZM14.227.227a2 2 0 1 1 0 4 2 2 0 0 1 0-4ZM26.227.227a2 2 0 1 1 0 4 2 2 0 0 1 0-4ZM38.227.227a2 2 0 1 1 0 4 2 2 0 0 1 0-4ZM50.227.227a2 2 0 1 1 0 4 2 2 0 0 1 0-4Z"/></svg>