<svg xmlns="http://www.w3.org/2000/svg" width="53" height="53" fill="none"><path fill="#E6A40B" d="M48.135 14.039a2 2 0 1 1 4-.04 2 2 0 0 1-4 .04ZM48.017 2.04a2 2 0 1 1 4-.04 2 2 0 0 1-4 .04ZM36.37 38.155a2 2 0 1 1 4-.04 2 2 0 0 1-4 .04ZM36.253 26.155a2 2 0 1 1 4-.039 2 2 0 0 1-4 .04ZM36.135 14.156a2 2 0 1 1 4-.04 2 2 0 0 1-4 .04ZM36.018 2.157a2 2 0 1 1 4-.04 2 2 0 0 1-4 .04ZM24.371 38.273a2 2 0 1 1 4-.04 2 2 0 0 1-4 .04ZM24.253 26.273a2 2 0 1 1 4-.039 2 2 0 0 1-4 .039ZM24.136 14.274a2 2 0 1 1 4-.04 2 2 0 0 1-4 .04ZM24.018 2.274a2 2 0 1 1 4-.04 2 2 0 0 1-4 .04ZM12.49 50.39a2 2 0 1 1 3.999-.04 2 2 0 0 1-4 .04ZM12.372 38.39a2 2 0 1 1 4-.04 2 2 0 0 1-4 .04ZM12.254 26.39a2 2 0 1 1 4-.039 2 2 0 0 1-4 .04ZM12.137 14.391a2 2 0 1 1 4-.039 2 2 0 0 1-4 .04ZM12.019 2.392a2 2 0 1 1 4-.04 2 2 0 0 1-4 .04ZM.49 50.507a2 2 0 1 1 4-.04 2 2 0 0 1-4 .04ZM.372 38.508a2 2 0 1 1 4-.04 2 2 0 0 1-4 .04ZM.255 26.508a2 2 0 1 1 4-.04 2 2 0 0 1-4 .04ZM.137 14.509a2 2 0 1 1 4-.04 2 2 0 0 1-4 .04ZM.02 2.51a2 2 0 1 1 4-.04 2 2 0 0 1-4 .04Z"/></svg>