<svg xmlns="http://www.w3.org/2000/svg" width="53" height="53" fill="none"><path fill="gray" fill-opacity=".3" d="M48.227 14.227a2 2 0 1 1 4 0 2 2 0 0 1-4 0ZM48.227 2.227a2 2 0 1 1 4 0 2 2 0 0 1-4 0ZM36.227 38.227a2 2 0 1 1 4 0 2 2 0 0 1-4 0ZM36.227 26.227a2 2 0 1 1 4 0 2 2 0 0 1-4 0ZM36.227 14.227a2 2 0 1 1 4 0 2 2 0 0 1-4 0ZM36.227 2.227a2 2 0 1 1 4 0 2 2 0 0 1-4 0ZM24.227 38.227a2 2 0 1 1 4 0 2 2 0 0 1-4 0ZM24.227 26.227a2 2 0 1 1 4 0 2 2 0 0 1-4 0ZM24.227 14.227a2 2 0 1 1 4 0 2 2 0 0 1-4 0ZM24.227 2.227a2 2 0 1 1 4 0 2 2 0 0 1-4 0ZM12.227 50.227a2 2 0 1 1 4 0 2 2 0 0 1-4 0ZM12.227 38.227a2 2 0 1 1 4 0 2 2 0 0 1-4 0ZM12.227 26.227a2 2 0 1 1 4 0 2 2 0 0 1-4 0ZM12.227 14.227a2 2 0 1 1 4 0 2 2 0 0 1-4 0ZM12.227 2.227a2 2 0 1 1 4 0 2 2 0 0 1-4 0ZM.227 50.227a2 2 0 1 1 4 0 2 2 0 0 1-4 0ZM.227 38.227a2 2 0 1 1 4 0 2 2 0 0 1-4 0ZM.227 26.227a2 2 0 1 1 4 0 2 2 0 0 1-4 0ZM.227 14.227a2 2 0 1 1 4 0 2 2 0 0 1-4 0ZM.227 2.227a2 2 0 1 1 4 0 2 2 0 0 1-4 0Z"/></svg>