<svg xmlns="http://www.w3.org/2000/svg" width="53" height="53" fill="none"><path fill="gray" fill-opacity=".3" d="M14.42 4.122a2 2 0 1 1 .035-4 2 2 0 0 1-.035 4ZM2.42 4.017a2 2 0 1 1 .035-4 2 2 0 0 1-.035 4ZM38.314 16.332a2 2 0 1 1 .035-4 2 2 0 0 1-.035 4ZM26.314 16.227a2 2 0 1 1 .035-4 2 2 0 0 1-.035 4ZM14.315 16.122a2 2 0 1 1 .035-4 2 2 0 0 1-.035 4ZM2.315 16.017a2 2 0 1 1 .035-4 2 2 0 0 1-.035 4ZM38.209 28.332a2 2 0 1 1 .035-4 2 2 0 0 1-.035 4ZM26.21 28.227a2 2 0 1 1 .034-4 2 2 0 0 1-.035 4ZM14.21 28.122a2 2 0 1 1 .035-4 2 2 0 0 1-.035 4ZM2.21 28.016a2 2 0 1 1 .035-4 2 2 0 0 1-.035 4ZM50.103 40.436a2 2 0 1 1 .035-4 2 2 0 0 1-.035 4ZM38.103 40.331a2 2 0 1 1 .036-4 2 2 0 0 1-.036 4ZM26.104 40.226a2 2 0 1 1 .035-4 2 2 0 0 1-.035 4ZM14.104 40.121a2 2 0 1 1 .036-4 2 2 0 0 1-.036 4ZM2.105 40.016a2 2 0 1 1 .035-4 2 2 0 0 1-.035 4ZM49.998 52.436a2 2 0 1 1 .035-4 2 2 0 0 1-.035 4ZM37.998 52.33a2 2 0 1 1 .035-3.999 2 2 0 0 1-.035 4ZM25.999 52.226a2 2 0 1 1 .035-4 2 2 0 0 1-.035 4ZM14 52.12a2 2 0 1 1 .034-4 2 2 0 0 1-.035 4ZM2 52.016a2 2 0 1 1 .035-4 2 2 0 0 1-.035 4Z"/></svg>