<svg xmlns="http://www.w3.org/2000/svg" width="33" height="33" fill="none"><path fill="#FB0" d="M22.938 22.925c-1.822 0-2.968.566-3.98 1.08-.878.445-1.593.809-2.767.809-1.214 0-1.889-.337-2.766-.81-1.012-.513-2.118-1.08-3.98-1.08s-2.969.567-3.98 1.08c-.58.297-1.094.553-1.714.702-.607.135-1.053.62-1.053 1.228v.135c0 .81.756 1.39 1.538 1.228.999-.203 1.755-.58 2.443-.931.877-.446 1.578-.81 2.766-.81 1.187 0 1.889.337 2.766.81 1.012.512 2.118 1.079 3.98 1.079s2.969-.567 3.98-1.08c.878-.445 1.593-.809 2.767-.809 1.214 0 1.889.337 2.766.81.702.35 1.457.742 2.47.944a1.268 1.268 0 0 0 1.51-1.228v-.121c0-.62-.458-1.107-1.065-1.242-.621-.135-1.12-.39-1.7-.701-1.012-.527-2.16-1.093-3.981-1.093Zm0-6.005c-1.822 0-2.968.58-3.98 1.08-.878.432-1.593.81-2.767.81-1.214 0-1.889-.338-2.766-.81-1.012-.513-2.118-1.08-3.98-1.08s-2.969.58-3.98 1.08c-.58.283-1.094.553-1.728.701-.593.135-1.039.621-1.039 1.228v.135a1.255 1.255 0 0 0 1.511 1.228c1.012-.202 1.768-.594 2.47-.93.877-.473 1.551-.81 2.766-.81 1.214 0 1.889.337 2.766.81 1.012.512 2.118 1.079 3.98 1.079s2.969-.58 3.98-1.08c.878-.472 1.553-.81 2.767-.81s1.889.338 2.766.81c.702.35 1.457.742 2.47.945a1.268 1.268 0 0 0 1.51-1.242v-.121c0-.62-.458-1.107-1.065-1.242-.621-.134-1.12-.39-1.7-.701-1.012-.513-2.16-1.08-3.981-1.08Zm3.98-10.902c-1.011-.513-2.131-1.08-3.98-1.08-1.849 0-2.968.567-3.98 1.08-.878.432-1.593.81-2.767.81-1.214 0-1.889-.338-2.766-.81-1.012-.5-2.118-1.08-3.98-1.08s-2.969.567-3.98 1.08c-.58.297-1.094.553-1.714.702-.607.134-1.053.62-1.053 1.227v.095c0 .81.729 1.403 1.511 1.241 1.012-.202 1.768-.593 2.47-.93.877-.446 1.578-.81 2.766-.81 1.187 0 1.889.337 2.766.81 1.012.512 2.118 1.079 3.98 1.079s2.969-.58 3.98-1.08c.878-.432 1.593-.81 2.767-.81 1.214 0 1.889.338 2.766.81.702.351 1.457.742 2.47.945a1.268 1.268 0 0 0 1.51-1.242v-.121c0-.62-.458-1.107-1.065-1.241-.621-.135-1.12-.378-1.7-.675Zm-3.98 4.898c-1.822 0-2.968.58-3.98 1.08-.878.472-1.552.809-2.767.809-1.214 0-1.889-.337-2.766-.81-1.012-.512-2.118-1.08-3.98-1.08s-2.969.581-3.98 1.08c-.58.31-1.08.567-1.7.702-.608.135-1.067.62-1.067 1.241v.122a1.255 1.255 0 0 0 1.511 1.228c1.012-.203 1.768-.594 2.47-.931.877-.432 1.592-.81 2.766-.81s1.889.337 2.766.81c1.012.512 2.118 1.08 3.98 1.08s2.969-.581 3.98-1.08c.878-.432 1.593-.81 2.767-.81 1.214 0 1.889.337 2.766.81.702.35 1.457.742 2.47.944a1.268 1.268 0 0 0 1.51-1.228v-.121c0-.62-.458-1.107-1.065-1.242-.621-.135-1.12-.39-1.7-.701-1.012-.526-2.16-1.093-3.981-1.093Z"/></svg>