<svg width="33" height="33" viewBox="0 0 33 33" fill="none" xmlns="http://www.w3.org/2000/svg">
<path d="M16.1921 10.7946C13.2101 10.7946 10.7948 13.2098 10.7948 16.1918C10.7948 19.1738 13.2101 21.5891 16.1921 21.5891C19.1741 21.5891 21.5893 19.1738 21.5893 16.1918C21.5893 13.2098 19.1741 10.7946 16.1921 10.7946ZM28.255 14.8425C27.9493 12.1063 26.7223 9.55528 24.7755 7.60842C22.8286 5.66157 20.2776 4.43459 17.5414 4.12895V2.69868C17.5414 1.95656 16.9342 1.34937 16.1921 1.34937C15.45 1.34937 14.8428 1.95656 14.8428 2.69868V4.12895C12.1065 4.43459 9.55552 5.66157 7.60867 7.60842C5.66182 9.55528 4.43483 12.1063 4.1292 14.8425H2.69892C1.9568 14.8425 1.34961 15.4497 1.34961 16.1918C1.34961 16.934 1.9568 17.5411 2.69892 17.5411H4.1292C4.43483 20.2774 5.66182 22.8284 7.60867 24.7752C9.55552 26.7221 12.1065 27.9491 14.8428 28.2547V29.685C14.8428 30.4271 15.45 31.0343 16.1921 31.0343C16.9342 31.0343 17.5414 30.4271 17.5414 29.685V28.2547C20.2776 27.9491 22.8286 26.7221 24.7755 24.7752C26.7223 22.8284 27.9493 20.2774 28.255 17.5411H29.6852C30.4273 17.5411 31.0345 16.934 31.0345 16.1918C31.0345 15.4497 30.4273 14.8425 29.6852 14.8425H28.255ZM16.1921 25.637C10.9702 25.637 6.74687 21.4137 6.74687 16.1918C6.74687 10.97 10.9702 6.74663 16.1921 6.74663C21.4139 6.74663 25.6373 10.97 25.6373 16.1918C25.6373 21.4137 21.4139 25.637 16.1921 25.637Z" fill="#FFBB00"/>
</svg>
