<svg width="33" height="33" viewBox="0 0 33 33" fill="none" xmlns="http://www.w3.org/2000/svg">
<path d="M24.2869 10.7946H22.9376V8.09594C22.9376 4.37183 19.9151 1.34937 16.191 1.34937C12.4669 1.34937 9.44443 4.37183 9.44443 8.09594V10.7946H8.09511C6.61087 10.7946 5.39648 12.009 5.39648 13.4932V26.9864C5.39648 28.4706 6.61087 29.685 8.09511 29.685H24.2869C25.7711 29.685 26.9855 28.4706 26.9855 26.9864V13.4932C26.9855 12.009 25.7711 10.7946 24.2869 10.7946ZM16.191 22.9384C14.7068 22.9384 13.4924 21.724 13.4924 20.2398C13.4924 18.7555 14.7068 17.5411 16.191 17.5411C17.6753 17.5411 18.8896 18.7555 18.8896 20.2398C18.8896 21.724 17.6753 22.9384 16.191 22.9384ZM12.1431 10.7946V8.09594C12.1431 5.85608 13.9511 4.048 16.191 4.048C18.4309 4.048 20.2389 5.85608 20.2389 8.09594V10.7946H12.1431Z" fill="#FFBB00"/>
</svg>
