<svg width="33" height="33" viewBox="0 0 33 33" fill="none" xmlns="http://www.w3.org/2000/svg">
<path d="M8.16374 10.862C6.39719 12.6288 5.40254 15.0235 5.39748 17.522C5.39242 20.0205 6.37737 22.4192 8.13675 24.1932C10.1202 19.6055 13.6554 15.7735 18.0677 13.4931C14.2594 16.7155 11.6886 21.1607 10.7949 26.0687C14.3031 27.7284 18.6209 27.1212 21.522 24.2202C25.5564 20.1857 26.6898 9.18881 26.9327 6.16635C26.9412 6.07031 26.9285 5.97359 26.8955 5.88298C26.8626 5.79238 26.8102 5.7101 26.742 5.64192C26.6738 5.57375 26.5915 5.52135 26.5009 5.4884C26.4103 5.45545 26.3136 5.44276 26.2176 5.45121C23.1951 5.69409 12.1982 6.82751 8.16374 10.862Z" fill="#FFBB00"/>
</svg>
