<svg xmlns="http://www.w3.org/2000/svg" width="33" height="33" fill="none"><path fill="#FB0" d="M26.258 13.493a1.35 1.35 0 0 0-.095 1.35c.335.78.57 1.601.702 2.442.347 2.172.022 4.4-.931 6.382a1.348 1.348 0 0 1-1.201.715H7.664a1.35 1.35 0 0 1-1.2-.729A10.795 10.795 0 0 1 17.54 8.178c.98.115 1.939.37 2.847.755a1.35 1.35 0 0 0 1.35-.094 1.35 1.35 0 0 0-.23-2.375A13.493 13.493 0 0 0 4.52 25.637a2.699 2.699 0 0 0 2.32 1.35H25.53a2.698 2.698 0 0 0 2.348-1.35 13.494 13.494 0 0 0 .742-11.995 1.348 1.348 0 0 0-2.361-.149Z"/><path fill="#FB0" d="M14.289 16.988a2.7 2.7 0 1 0 3.819 3.818l7.637-11.455-11.456 7.637Z"/></svg>