<svg width="136" height="27" viewBox="0 0 136 27" fill="none" xmlns="http://www.w3.org/2000/svg">
<path d="M5.04 11.1341C5.688 10.3241 6.576 9.666 7.704 9.15975C8.856 8.6535 10.164 8.40038 11.628 8.40038C13.332 8.40038 14.868 8.75475 16.236 9.4635C17.628 10.1722 18.72 11.1848 19.512 12.501C20.328 13.797 20.736 15.3056 20.736 17.0269C20.736 18.7481 20.328 20.277 19.512 21.6135C18.72 22.9297 17.628 23.9524 16.236 24.6814C14.868 25.4104 13.332 25.7749 11.628 25.7749C10.14 25.7749 8.832 25.5319 7.704 25.0459C6.6 24.5396 5.712 23.8916 5.04 23.1019V25.5015H0V3.024H5.04V11.1341ZM15.588 17.0269C15.588 16.0144 15.336 15.1436 14.832 14.4146C14.352 13.6654 13.704 13.0984 12.888 12.7136C12.1004 12.3298 11.2055 12.1306 10.296 12.1365C9.384 12.1365 8.52 12.339 7.704 12.744C6.912 13.1288 6.264 13.6958 5.76 14.445C5.28 15.1943 5.04 16.0751 5.04 17.0876C5.04 18.1001 5.28 18.981 5.76 19.7303C6.264 20.4795 6.912 21.0566 7.704 21.4616C8.52 21.8464 9.384 22.0388 10.296 22.0388C11.232 22.0388 12.096 21.8362 12.888 21.4312C13.704 21.0262 14.352 20.4491 14.832 19.6999C15.336 18.9506 15.588 18.0596 15.588 17.0269ZM26.954 6.669C26.066 6.669 25.322 6.43613 24.722 5.97038C24.146 5.48438 23.858 4.887 23.858 4.17825C23.858 3.4695 24.146 2.88225 24.722 2.4165C25.322 1.9305 26.066 1.6875 26.954 1.6875C27.842 1.6875 28.574 1.9305 29.15 2.4165C29.75 2.88225 30.05 3.4695 30.05 4.17825C30.05 4.887 29.75 5.48438 29.15 5.97038C28.574 6.43613 27.842 6.669 26.954 6.669ZM29.438 8.67375V25.5015H24.398V8.67375H29.438ZM46.226 25.5015L39.458 18.333V25.5015H34.418V3.024H39.458V15.8119L46.154 8.67375H52.706L43.922 17.118L52.778 25.5015H46.226ZM53.145 17.0876C53.145 15.3461 53.565 13.8274 54.405 12.5314C55.245 11.2151 56.409 10.2026 57.897 9.49387C59.385 8.76487 61.089 8.40038 63.009 8.40038C65.481 8.40038 67.521 8.92688 69.129 9.97988C70.761 11.0126 71.853 12.4706 72.405 14.3539H66.97C66.682 13.6249 66.19 13.0579 65.494 12.6529C64.822 12.2276 63.982 12.015 62.974 12.015C61.534 12.015 60.394 12.4605 59.554 13.3515C58.714 14.2223 58.294 15.4676 58.294 17.0876C58.294 18.6874 58.714 19.9328 59.554 20.8238C60.394 21.6945 61.534 22.1299 62.974 22.1299C65.014 22.1299 66.346 21.3604 66.97 19.8214H72.406C71.854 21.6439 70.762 23.0917 69.13 24.165C67.498 25.2382 65.458 25.7749 63.01 25.7749C61.09 25.7749 59.386 25.4205 57.898 24.7118C56.4218 23.993 55.2125 22.9411 54.406 21.6742C53.566 20.358 53.145 18.8291 53.145 17.0876ZM80.138 11.286C80.756 10.4199 81.6227 9.69908 82.658 9.19013C83.714 8.68388 84.914 8.43075 86.258 8.43075V12.8959H84.926C83.342 12.8959 82.142 13.2097 81.326 13.8375C80.534 14.4652 80.138 15.5588 80.138 17.118V25.5015H75.098V8.67375H80.138V11.286ZM101.712 23.1019C101.16 23.8714 100.26 24.5194 99.012 25.0459C97.764 25.5521 96.42 25.8052 94.98 25.8052C93.732 25.8052 92.604 25.5926 91.596 25.1674C90.588 24.7421 89.796 24.1549 89.22 23.4056C88.644 22.6564 88.356 21.7958 88.356 20.8238C88.356 19.2645 89.04 17.9887 90.408 16.9965C91.8 16.0042 93.876 15.5081 96.636 15.5081H101.712C101.664 14.4349 101.292 13.5844 100.596 12.9566C99.924 12.3086 98.988 11.9846 97.788 11.9846C96.732 11.9846 95.856 12.2276 95.16 12.7136C94.464 13.1794 94.02 13.8375 93.828 14.688H88.788C89.028 13.473 89.544 12.3896 90.336 11.4379C91.1449 10.4709 92.2362 9.69663 93.504 9.19013C94.824 8.64338 96.3 8.37 97.932 8.37C99.612 8.37 101.124 8.66362 102.468 9.25087C103.803 9.81188 104.916 10.6877 105.672 11.772C106.44 12.8655 106.824 14.1514 106.824 15.6296V25.5015H101.712V23.1019ZM96.456 22.3729C97.296 22.3729 98.112 22.221 98.904 21.9172C99.72 21.6135 100.392 21.1579 100.92 20.5504C101.448 19.9429 101.712 19.224 101.712 18.3937V18.2723H96.924C95.772 18.2723 94.908 18.4646 94.332 18.8494C93.78 19.2341 93.504 19.7404 93.504 20.3681C93.504 20.9756 93.756 21.4616 94.26 21.8261C94.788 22.1906 95.52 22.3729 96.456 22.3729ZM117.453 12.1669V25.5015H112.341V12.1669H110.073V8.67375H112.341V7.82325C112.341 5.75775 113.037 4.239 114.429 3.267C115.821 2.295 117.921 1.83938 120.729 1.90013V5.48438C119.505 5.46412 118.653 5.63625 118.173 6.00075C117.693 6.36525 117.453 7.02337 117.453 7.97512V8.67375H124.003V4.51238H129.079V8.67375H133.543V12.1669H129.079V20.3074C129.079 20.8744 129.235 21.2895 129.547 21.5528C129.883 21.7958 130.435 21.9172 131.203 21.9172H133.543V25.5015H130.375C126.127 25.5015 124.003 23.76 124.003 20.277V12.1669H117.453Z" fill="white"/>
</svg>
